<svg fill="none" height="637" viewBox="0 0 880 637" width="880" xmlns="http://www.w3.org/2000/svg" xmlns:xlink="http://www.w3.org/1999/xlink"><clipPath id="a"><path d="m95.7422 0h564v637h-564z"/></clipPath><path d="m812.984 337.987h-115.742c1.555 0 3.097-.077 4.611-.232-22.421-2.211-39.901-20.363-39.901-42.427 0-22.063 17.48-40.215 39.901-42.426-1.514-.155-3.056-.232-4.611-.232 24.582 0 44.498-19.095 44.498-42.643 0-23.549-19.93-42.644-44.498-42.644h-570.891c-24.582 0-44.4982 19.095-44.4982 42.644 0 23.548 19.9302 42.643 44.4982 42.643h-11.355c24.582 0 44.498 19.095 44.498 42.643s-19.93 42.643-44.498 42.643h-47.9805c-37.0106.031-67.0155 28.79-67.0155 64.259s30.0049 64.212 67.0155 64.212h47.9945c24.582 0 44.498 19.095 44.498 42.643s-19.93 42.643-44.498 42.643h11.355c-24.582 0-44.4985 19.096-44.4985 42.644s19.9295 42.643 44.4985 42.643h570.891c24.582 0 44.498-19.095 44.498-42.643s-19.93-42.644-44.498-42.644c1.555 0 3.096-.077 4.611-.231-22.422-2.211-39.901-20.363-39.901-42.427s17.479-40.216 39.901-42.427c-1.515-.155-3.042-.232-4.598-.232h115.715c37.011 0 67.016-28.759 67.016-64.212 0-35.438-30.005-64.197-67.016-64.197z" fill="#e5f2fd"/><g clip-path="url(#a)"><path d="m423.402 95.3518h-197.325c-21.885 0-39.627 17.7222-39.627 39.5842v462.466c0 21.862 17.742 39.584 39.627 39.584h197.325c21.885 0 39.627-17.722 39.627-39.584v-462.466c0-21.862-17.742-39.5842-39.627-39.5842z" fill="#e5edfd"/><path d="m423.416 108.908c6.909.007 13.532 2.752 18.417 7.631 4.884 4.88 7.632 11.496 7.639 18.397v462.48c.006 3.423-.664 6.813-1.971 9.977-1.306 3.165-3.224 6.041-5.644 8.464-2.42 2.424-5.294 4.347-8.458 5.661s-6.556 1.992-9.983 1.995h-197.339c-6.908-.026-13.524-2.788-18.396-7.68-4.872-4.893-7.601-11.516-7.59-18.417v-462.48c.007-6.901 2.755-13.517 7.639-18.397 4.885-4.879 11.508-7.624 18.417-7.631zm0-13.5562h-197.339c-5.203 0-10.355 1.024-15.162 3.0134-4.807 1.9898-9.175 4.9058-12.853 8.5818-3.679 3.675-6.596 8.039-8.586 12.842-1.99 4.802-3.013 9.949-3.012 15.147v462.48c0 10.495 4.174 20.559 11.603 27.98 7.428 7.421 17.504 11.59 28.01 11.59h197.339c10.508 0 20.585-4.169 28.016-11.589s11.607-17.485 11.611-27.981v-462.48c0-10.499-4.175-20.567-11.606-27.99-7.432-7.4237-17.511-11.5942-28.021-11.5942z" fill="#060000"/><path d="m386.49 96.7145h-123.472v14.3485c-.002 1.512.295 3.01.873 4.408.579 1.397 1.427 2.667 2.498 3.737 1.071 1.069 2.342 1.917 3.741 2.495s2.898.874 4.412.872h100.424c3.056 0 5.988-1.212 8.149-3.371s3.375-5.088 3.375-8.141z" fill="#060000"/><path d="m301.767 107.476h47.338" stroke="#fff" stroke-linecap="round" stroke-linejoin="round" stroke-width=".76"/><path d="m374.047 437.787h-141.011c-6.096 0-11.037 4.936-11.037 11.026v117.653c0 6.09 4.941 11.026 11.037 11.026h141.011c6.095 0 11.037-4.936 11.037-11.026v-117.653c0-6.09-4.942-11.026-11.037-11.026z" fill="#9bbdf9"/><path d="m281.613 457.336h-32.417c-2.422 0-4.384 1.961-4.384 4.379v32.382c0 2.419 1.962 4.38 4.384 4.38h32.417c2.421 0 4.384-1.961 4.384-4.38v-32.382c0-2.418-1.963-4.379-4.384-4.379z" fill="#fff"/><g stroke-linecap="round" stroke-linejoin="round" stroke-width="1.3"><path d="m300.055 470.308h37.219" stroke="#000"/><path d="m300.055 483.558h60.018" stroke="#000"/><path d="m244.812 515.592h41.185" stroke="#fff"/><path d="m244.812 529.274h115.26" stroke="#fff"/><path d="m244.812 544.332h115.26" stroke="#fff"/></g><path d="m160.892 236.99c4.234-17.725-6.718-35.521-24.461-39.75-17.744-4.229-35.56 6.711-39.7932 24.435-4.2336 17.724 6.7182 35.521 24.4612 39.75 17.744 4.229 35.56-6.711 39.793-24.435z" fill="#dc761c"/><path d="m115.465 230.913 10.369 7.661 17.761-18.408" stroke="#fff" stroke-linecap="round" stroke-linejoin="round" stroke-width="2.14"/><path d="m257.798 316.755h-110.584c-3.99 0-7.224 3.231-7.224 7.216v76.957c0 3.986 3.234 7.216 7.224 7.216h110.584c3.989 0 7.223-3.23 7.223-7.216v-76.957c0-3.985-3.234-7.216-7.223-7.216z" fill="#606eff"/><path d="m221.776 355.004c.006-3.034-.69-6.029-2.032-8.752-1.342-2.722-3.294-5.099-5.706-6.944-2.411-1.846-5.216-3.111-8.197-3.698-2.981-.586-6.057-.477-8.988.317-2.932.795-5.641 2.255-7.916 4.266s-4.055 4.519-5.202 7.329c-1.146 2.811-1.628 5.847-1.408 8.874s1.135 5.962 2.676 8.577v.07c.749 1.274 1.641 2.459 2.658 3.531l14.323 18.937 14.294-18.923c1.029-1.083 1.934-2.277 2.701-3.559 1.82-3.029 2.786-6.492 2.797-10.025zm-19.75 8.593c-1.721 0-3.403-.51-4.834-1.465-1.43-.955-2.545-2.312-3.203-3.9-.659-1.587-.831-3.335-.496-5.02.336-1.686 1.165-3.234 2.381-4.45 1.217-1.215 2.767-2.043 4.454-2.378 1.688-.335 3.437-.163 5.027.495 1.589.657 2.948 1.771 3.904 3.2s1.466 3.109 1.466 4.828c0 1.141-.225 2.271-.662 3.325-.438 1.055-1.078 2.013-1.886 2.82s-1.767 1.447-2.822 1.883c-1.056.437-2.187.662-3.329.662z" fill="#fff"/><path d="m420.062 163.591h-190.714c-6.096 0-11.037 4.937-11.037 11.026v117.654c0 6.089 4.941 11.025 11.037 11.025h190.714c6.096 0 11.038-4.936 11.038-11.025v-117.654c0-6.089-4.942-11.026-11.038-11.026z" fill="#fff"/><path d="m268.07 196.905h-28.422c-2.122 0-3.842 1.718-3.842 3.837v28.392c0 2.119 1.72 3.837 3.842 3.837h28.422c2.121 0 3.841-1.718 3.841-3.837v-28.392c0-2.119-1.72-3.837-3.841-3.837z" fill="#9bbdf9"/><path d="m314.071 196.905h-28.422c-2.121 0-3.841 1.718-3.841 3.837v28.392c0 2.119 1.72 3.837 3.841 3.837h28.422c2.122 0 3.842-1.718 3.842-3.837v-28.392c0-2.119-1.72-3.837-3.842-3.837z" fill="#9bbdf9"/><path d="m360.072 196.905h-28.422c-2.121 0-3.841 1.718-3.841 3.837v28.392c0 2.119 1.72 3.837 3.841 3.837h28.422c2.122 0 3.842-1.718 3.842-3.837v-28.392c0-2.119-1.72-3.837-3.842-3.837z" fill="#9bbdf9"/><path d="m406.074 196.905h-28.422c-2.122 0-3.842 1.718-3.842 3.837v28.392c0 2.119 1.72 3.837 3.842 3.837h28.422c2.121 0 3.841-1.718 3.841-3.837v-28.392c0-2.119-1.72-3.837-3.841-3.837z" fill="#dc761c"/><path d="m268.07 245.554h-28.422c-2.122 0-3.842 1.718-3.842 3.837v28.392c0 2.119 1.72 3.837 3.842 3.837h28.422c2.121 0 3.841-1.718 3.841-3.837v-28.392c0-2.119-1.72-3.837-3.841-3.837z" fill="#9bbdf9"/><path d="m314.071 245.554h-28.422c-2.121 0-3.841 1.718-3.841 3.837v28.392c0 2.119 1.72 3.837 3.841 3.837h28.422c2.122 0 3.842-1.718 3.842-3.837v-28.392c0-2.119-1.72-3.837-3.842-3.837z" fill="#9bbdf9"/><path d="m360.072 245.554h-28.422c-2.121 0-3.841 1.718-3.841 3.837v28.392c0 2.119 1.72 3.837 3.841 3.837h28.422c2.122 0 3.842-1.718 3.842-3.837v-28.392c0-2.119-1.72-3.837-3.842-3.837z" fill="#9bbdf9"/><path d="m406.074 245.554h-28.422c-2.122 0-3.842 1.718-3.842 3.837v28.392c0 2.119 1.72 3.837 3.842 3.837h28.422c2.121 0 3.841-1.718 3.841-3.837v-28.392c0-2.119-1.72-3.837-3.841-3.837z" fill="#9bbdf9"/><path d="m252.175 180.655c.473 0 .887-.143 1.241-.43.355-.287.551-.646.589-1.077h1.256c-.024.445-.177.869-.459 1.271-.283.402-.661.722-1.134.961-.469.24-.967.359-1.493.359-1.058 0-1.9-.351-2.527-1.055-.622-.708-.933-1.675-.933-2.9v-.222c0-.756.139-1.429.416-2.017.278-.589.675-1.046 1.192-1.371.521-.325 1.136-.488 1.845-.488.87 0 1.593.261 2.167.782.579.522.888 1.199.926 2.032h-1.256c-.038-.503-.23-.914-.574-1.235-.34-.325-.761-.488-1.263-.488-.675 0-1.199.244-1.572.732-.369.483-.553 1.184-.553 2.103v.251c0 .895.184 1.584.553 2.067.368.484.894.725 1.579.725zm6.381-8.706v1.88h1.45v1.027h-1.45v4.816c0 .311.064.546.194.703.129.154.349.23.66.23.153 0 .364-.029.632-.086v1.077c-.35.095-.69.143-1.02.143-.593 0-1.041-.179-1.342-.538s-.452-.869-.452-1.529v-4.816h-1.414v-1.027h1.414v-1.88zm2.512 5.692c0-.761.148-1.445.445-2.053.301-.608.718-1.077 1.249-1.407.536-.33 1.146-.495 1.83-.495 1.058 0 1.912.366 2.563 1.098.655.732.983 1.706.983 2.921v.094c0 .756-.146 1.435-.438 2.038-.287.598-.701 1.065-1.242 1.4-.536.335-1.153.502-1.851.502-1.053 0-1.907-.366-2.563-1.098-.651-.732-.976-1.701-.976-2.907zm1.335.158c0 .861.199 1.552.596 2.074.402.522.938.782 1.608.782.674 0 1.21-.263 1.607-.789.398-.531.596-1.273.596-2.225 0-.852-.203-1.541-.61-2.067-.402-.532-.938-.797-1.608-.797-.655 0-1.184.261-1.586.782-.402.522-.603 1.268-.603 2.24zm13.975 0c0 1.186-.273 2.141-.818 2.864-.546.717-1.278 1.076-2.197 1.076-.981 0-1.739-.347-2.275-1.041l-.065.898h-1.22v-11.025h1.328v4.113c.536-.666 1.275-.998 2.218-.998s1.682.356 2.218 1.069c.541.713.811 1.689.811 2.929zm-1.328-.151c0-.904-.175-1.603-.524-2.096s-.852-.739-1.507-.739c-.876 0-1.505.406-1.888 1.22v3.359c.407.814 1.041 1.22 1.902 1.22.637 0 1.132-.246 1.486-.739s.531-1.235.531-2.225zm6.23 4.091c-1.052 0-1.909-.344-2.569-1.033-.661-.694-.991-1.62-.991-2.778v-.244c0-.771.146-1.457.438-2.06.297-.608.708-1.082 1.235-1.421.531-.345 1.105-.517 1.722-.517 1.01 0 1.795.332 2.355.998.559.665.839 1.617.839 2.856v.553h-5.261c.019.766.242 1.385.668 1.859.43.469.976.703 1.636.703.469 0 .866-.095 1.192-.287.325-.191.61-.445.854-.761l.811.632c-.651 1-1.627 1.5-2.929 1.5zm-.165-6.962c-.536 0-.985.196-1.349.588-.364.388-.589.934-.675 1.637h3.891v-.101c-.039-.674-.221-1.196-.546-1.564-.325-.374-.766-.56-1.321-.56zm8.492.244c-.201-.034-.419-.05-.654-.05-.87 0-1.461.371-1.772 1.112v5.513h-1.328v-7.767h1.292l.021.898c.436-.694 1.053-1.041 1.852-1.041.258 0 .455.033.589.1z" fill="#dc761c"/><path d="m423.876 316.755h-124.767c-3.99 0-7.224 3.231-7.224 7.216v76.957c0 3.986 3.234 7.216 7.224 7.216h124.767c3.989 0 7.224-3.23 7.224-7.216v-76.957c0-3.985-3.235-7.216-7.224-7.216z" fill="#fff"/><path d="m412.184 327.113h-98.906c-2.122 0-3.842 1.718-3.842 3.838v13.097c0 2.119 1.72 3.838 3.842 3.838h98.906c2.122 0 3.842-1.719 3.842-3.838v-13.097c0-2.12-1.72-3.838-3.842-3.838z" fill="#9bbdf9"/><path d="m310.828 361.497h48.576" stroke="#000" stroke-linecap="round" stroke-linejoin="round" stroke-width="1.3"/><path d="m310.828 373.315h103.792" stroke="#000" stroke-linecap="round" stroke-linejoin="round" stroke-width="1.3"/><path d="m310.828 386.357h103.792" stroke="#000" stroke-linecap="round" stroke-linejoin="round" stroke-width="1.3"/><path d="m490.797 467.527h-72.336c-4.85 0-8.782 3.928-8.782 8.774v62.664c0 4.845 3.932 8.773 8.782 8.773h72.336c4.85 0 8.783-3.928 8.783-8.773v-62.664c0-4.846-3.933-8.774-8.783-8.774z" fill="#dc761c"/><path d="m472.438 504.136-2.951-.515c-.348-1.287-.858-2.525-1.517-3.684l1.712-2.447c.31-.436.455-.967.409-1.499s-.279-1.031-.659-1.407l-1.768-1.766c-.384-.368-.886-.591-1.417-.629s-1.059.111-1.492.421l-2.45 1.724c-1.153-.666-2.388-1.18-3.674-1.53l-.515-3.003c-.09-.519-.357-.99-.755-1.335s-.904-.541-1.43-.556h-2.52c-.535 0-1.053.19-1.462.536-.408.347-.679.827-.765 1.355l-.529 2.934c-1.285.349-2.521.863-3.674 1.529l-2.436-1.654c-.439-.303-.971-.442-1.502-.394-.532.048-1.029.281-1.407.658l-1.768 1.766c-.376.374-.608.869-.657 1.398-.048.528.091 1.057.393 1.494l1.726 2.461c-.668 1.15-1.179 2.384-1.517 3.67l-2.951.515c-.526.094-1.002.37-1.346.779-.343.409-.532.925-.533 1.459v2.503c.001.534.19 1.05.533 1.459.344.409.82.685 1.346.779l2.951.515c.338 1.286.849 2.52 1.517 3.67l-1.768 2.503c-.303.439-.442.97-.394 1.501s.281 1.028.659 1.405l1.767 1.766c.378.376.875.609 1.407.657.531.049 1.063-.091 1.502-.393l2.45-1.724c1.151.667 2.387 1.177 3.675 1.515l.514 2.948c.095.525.371 1.001.781 1.344.409.343.926.531 1.46.533h2.548c.533.001 1.05-.187 1.457-.531.408-.344.681-.821.77-1.346l.528-2.948c1.288-.338 2.524-.848 3.675-1.515l2.394 1.682c.438.304.968.446 1.5.4.531-.045 1.03-.276 1.409-.65l1.768-1.766c.38-.376.613-.875.659-1.407s-.099-1.063-.409-1.499l-1.712-2.475c.657-1.155 1.167-2.388 1.517-3.67l2.951-.515c.529-.089 1.008-.363 1.352-.773.344-.411.531-.93.527-1.465v-2.503c.014-.542-.168-1.072-.513-1.491s-.83-.699-1.366-.789zm-17.816 11.304c-1.553 0-3.071-.461-4.363-1.323-1.291-.862-2.297-2.088-2.891-3.521-.594-1.434-.748-3.012-.444-4.533.304-1.522 1.053-2.919 2.152-4.015s2.5-1.842 4.023-2.143c1.524-.301 3.103-.144 4.537.452s2.659 1.603 3.52 2.894c.861 1.292 1.319 2.809 1.316 4.361-.003 2.077-.832 4.068-2.304 5.536-1.472 1.467-3.466 2.292-5.546 2.292z" fill="#fff"/><path d="m542.978 50.1647h56.106c6.645 0 13.017-2.6368 17.716-7.3302 4.698-4.6934 7.338-11.0591 7.338-17.6966s-2.64-13.0031-7.338-17.69653c-4.699-4.69343-11.071-7.330164-17.716-7.330164h-56.106c-6.645 0-13.017 2.636734-17.716 7.330164-4.698 4.69343-7.338 11.05903-7.338 17.69653s2.64 13.0032 7.338 17.6966c4.699 4.6934 11.071 7.3302 17.716 7.3302z" fill="#9bbdf9"/><path d="m562.729 44.645-18.206 17.8524-3.313-19.1733z" fill="#9bbdf9"/><path d="m562.618 17.1155c-1.258-1.2284-2.952-1.9082-4.711-1.8899-1.759.0182-3.439.733-4.671 1.9873l-1.684 1.724-1.74-1.7101c-1.253-1.2317-2.945-1.9155-4.703-1.9012-1.758.0144-3.438.7257-4.671 1.9776s-1.917 2.9418-1.903 4.698c.014 1.7561.726 3.4346 1.98 4.6662l6.444 6.3401c1.257 1.2242 2.948 1.9013 4.704 1.883 1.755-.0182 3.432-.7303 4.663-1.9803l6.347-6.4792c1.219-1.2483 1.896-2.9257 1.885-4.6691-.01-1.7434-.707-3.4126-1.94-4.6464z" fill="#fff"/><path d="m575.283 19.354h25.82" stroke="#fff" stroke-linecap="round" stroke-linejoin="round" stroke-width="1.02"/><path d="m575.283 26.5006h13.613" stroke="#fff" stroke-linecap="round" stroke-linejoin="round" stroke-width="1.02"/><path d="m490.56 547.905-16.507 9.079c-.899.511-1.606 1.3-2.015 2.249-.409.948-.499 2.003-.254 3.006.431 1.641 1.837 2.906 5.567 2.976 8.157.167 44.276-5.84 44.276-5.84v5.186l16.869.084s1.058-24.526-4.036-27.641z" fill="#200902"/><path d="m512.677 529.872-22.116 18.074s2.783 8.162 15.449 2.781 28.395-13.626 28.395-13.626l-2.311-9.524z" fill="#ecc696"/><path d="m532.094 527.578 2.296-65.459-21.922-1.794v76.679z" fill="#ecc696"/><path d="m493.065 265.575 9.159 254.912h42.522l2.171-275.503z" fill="#3a2222"/><path d="m497.826 261.098 21.393 124.203c.613 3.597 2 7.019 4.067 10.029 2.066 3.01 4.763 5.535 7.902 7.402s6.647 3.031 10.281 3.41c3.634.38 7.307-.032 10.765-1.209 5.266-1.798 9.788-5.287 12.86-9.923s4.521-10.157 4.121-15.702l-4.092-56.421c-2.06-19.146 2.686-43.908-18.248-77.861z" fill="#523332"/><path d="m610.261 541.648-9.172 16.518c-.488.908-.667 1.95-.508 2.969.158 1.019.644 1.958 1.385 2.676 1.238 1.182 3.103 1.501 6.249-.39 6.959-4.171 34.421-28.419 34.421-28.419l2.784 4.394 14.35-8.871s-12.123-21.342-18.094-21.286z" fill="#200902"/><path d="m619.434 514.647-9.173 27.001s6.751 5.409 14.545-5.881c7.795-11.29 16.828-26.598 16.828-26.598l-6.959-6.771z" fill="#ecc696"/><path d="m634.661 502.398-32.807-56.7-19.528 10.095 40.726 65z" fill="#ecc696"/><path d="m522.406 393.99 79.017 117.709 36.829-23.58-76.372-128.082z" fill="#523332"/><path d="m463.461 59.3829s-17.566-2.2802-19.793 14.3208c-1.712 12.3605 3.981 18.4364-.473 28.3773-4.454 9.941 3.897 18.826 3.897 18.826s20.809 9.649 43.399-10.08z" fill="#dc761c"/><path d="m470.281 114.928 9.52 24.721 19.932-5.311-18.415-35.538z" fill="#ecc696"/><path d="m474.832 126.733 4.079-18.103-7.433 9.427z" fill="#000"/><path d="m461.234 63.1091s-11.831 2.4887-11.845 17.4909c0 0-.571 5.7283.181 21.356.543 11.123 5.762 18.742 16.16 17.686 5.052-.515 10.327-3.587 15.06-7.578l6.625-6.743c15.311-18.659-.668-46.8002-24.455-42.5595-.571.0973-1.197.2224-1.726.3476z" fill="#ecc696"/><path d="m450.335 93.2385-4.175 7.3555c-.14.172-.231.377-.266.596s-.012.443.067.649c.079.207.211.39.382.53.172.14.377.233.596.268l5.442.71z" fill="#ecc696"/><path d="m478.298 88.8727c.418-3.3925 2.784-27.015-14.977-23.97-.579.0956-1.174-.0116-1.683-.3035-.509-.292-.902-.7508-1.111-1.2987-.21-.5479-.224-1.1514-.039-1.7082s.556-1.0328 1.052-1.3474c6.333-3.9486 16.382-6.6738 30.927-1.0706 5.888 2.2663 14.03 10.0385 14.03 17.6717 0 16.3786-5.456 24.693-15.074 33.133-.116.101-.254.174-.404.214-.149.04-.305.046-.457.016-.152-.029-.294-.093-.418-.186-.123-.093-.224-.213-.294-.35l-6.193-11.9575c-.006-.0415-.006-.0836 0-.1251-.682-2.169-4.176-6.7433-5.095-7.9947-.091-.0962-.161-.2099-.206-.3343-.046-.1243-.065-.2565-.058-.3887z" fill="#dc761c"/><path d="m466.439 59.1048c-22.27 10.261 10.328 34.6759 10.328 34.6759l9.172-18.0748s-15.825-18.3113-19.5-16.6011z" fill="#dc761c"/><path d="m451.671 79.5294 11.79 3.9904c-1.491-2.4843-3.652-4.4985-6.236-5.8118-5.609-2.7251-5.554 1.8214-5.554 1.8214z" fill="#000"/><path d="m454.149 87.5797c1.125.2344 2.142.8301 2.896 1.6963s1.203 1.9552 1.28 3.1005c.139 3.9487-4.176 3.6845-4.176 3.6845s-3.786-4.7829 0-8.4813z" fill="#fff"/><path d="m454.956 86.5508s3.076 5.7144-.877 9.5102l-2.213-.2086-.111-6.2428z" fill="#000"/><path d="m453.203 86.5786c.665.0488 1.318.2037 1.934.4588.597.2374 1.148.5761 1.629 1.0011.485.4188.882.9291 1.169 1.5016.286.5412.487 1.1225.598 1.7241.008.0553-.004.1116-.034.1587-.03.0472-.076.0822-.129.0989-.054.0166-.111.0139-.163-.0078-.051-.0217-.094-.061-.119-.1108-.18-.5241-.433-1.0202-.752-1.4738-.31-.4369-.703-.8098-1.155-1.0984-.43-.2735-.899-.4797-1.392-.6117-.49-.1257-.998-.1727-1.503-.1391-.097.0096-.195-.0001-.288-.0285-.093-.0285-.18-.0751-.255-.1371-.075-.0621-.137-.1383-.182-.2245-.046-.0861-.073-.1803-.082-.2773-.016-.197.047-.3922.175-.5431.128-.151.31-.2456.507-.2633z" fill="#000"/><path d="m450.307 105.446c-.292.008-.572.122-.785.322-.214.199-.347.47-.375.761-.027.291.053.582.226.818.172.236.426.4.711.463 0 0-1.712 1.738.877 2.322 2.589.583 4.997-3.838 4.997-3.838-3.146.709-3.8-1.14-5.651-.848z" fill="#c7181b"/><path d="m479.954 98.8973c.812 6.9247.892 13.9147.237 20.8557 0 0 28.102 9.023 40.879-22.9273 0 0-8.156-3.1423-10.662-10.1498-2.505-7.0074 0-31.3807-32.848-30.6577 0-.0139.905 31.7283 2.394 42.8791z" fill="#dc761c"/><path d="m490.755 93.5862c.183 1.4838-.077 2.9887-.75 4.3246-.672 1.3358-1.725 2.4422-3.027 3.1812-1.301.738-2.793 1.074-4.286.966-1.493-.109-2.92-.656-4.101-1.574-1.181-.9184-2.064-2.1656-2.536-3.5844-.472-1.4187-.513-2.9455-.117-4.3873s1.211-2.734 2.342-3.7134 2.527-1.602 4.012-1.7892c.988-.1246 1.991-.0531 2.952.2101.96.2633 1.859.7133 2.646 1.3242.786.6109 1.443 1.3707 1.935 2.2359.492.8653.808 1.8189.93 2.8063z" fill="#ecc696"/><path d="m479.954 97.7155s.292-5.7561 5.053-5.8534" stroke="#000" stroke-linecap="round" stroke-linejoin="round" stroke-width=".51"/><path d="m528.893 153.317 46.586 37.693c1.575 1.351 2.859 3.009 3.773 4.872.914 1.862 1.439 3.891 1.543 5.963s-.215 4.143-.937 6.088c-.723 1.945-1.834 3.723-3.266 5.225-2.68 2.783-6.315 4.45-10.175 4.667-3.859.217-7.658-1.033-10.633-3.499l-50.567-40.015z" fill="#ecc696"/><path d="m556.841 167.165s-1.99 15.002-28.171 32.229l-35.59-26.362c-2.348-1.744-4.307-3.957-5.751-6.499-1.445-2.542-2.343-5.357-2.637-8.265-.295-2.908.02-5.846.925-8.625.905-2.78 2.38-5.341 4.331-7.519 3.307-3.704 7.817-6.121 12.735-6.826s9.926.349 14.142 2.975z" fill="#467ac9"/><path d="m555.978 214.868 46.224 59.314 11.274-13.278-34.546-65.89c-1.329-1.769-3.026-3.229-4.974-4.279-1.948-1.051-4.101-1.666-6.311-1.805-2.209-.139-4.423.203-6.487 1.001-2.065.798-3.932 2.034-5.472 3.623-2.737 2.892-4.238 6.737-4.184 10.716.055 3.98 1.661 7.782 4.476 10.598z" fill="#ecc696"/><path d="m599.558 271.665-.474 2.962c-.641 3.992-.331 8.079.905 11.929l2.171 6.771c.128.373.334.715.604 1.003.27.287.598.514.963.666.365.151.757.223 1.152.211s.782-.108 1.137-.281c.621-.323 1.131-.823 1.466-1.438.334-.614.478-1.314.413-2.01l-.71-7.508 15.032 21.245c.167.251.386.464.642.623.256.16.544.263.843.303.299.039.604.014.893-.074.288-.087.555-.236.782-.435l.64-.556c.371-.32.618-.758.699-1.241.082-.482-.008-.978-.254-1.401l-9.59-14.654 13.348 15.294c.184.237.416.434.681.575.265.142.556.226.856.247s.601-.021.883-.125c.282-.103.539-.265.754-.475l.445-.445c.365-.361.586-.842.622-1.353.036-.512-.116-1.019-.427-1.427l-11.037-14.196 10.745 8.94c.238.208.52.361.824.446.305.086.625.103.937.05.312-.054.608-.176.867-.358.258-.182.473-.419.629-.694l.139-.237c.218-.395.304-.849.246-1.296-.057-.447-.256-.865-.566-1.192l-10.564-10.053 6.597 3.935c.278.226.609.379.962.442s.717.036 1.056-.079c.34-.116.644-.315.885-.581.242-.265.411-.587.493-.936.083-.356.073-.727-.03-1.078-.102-.35-.293-.669-.554-.924l-26.808-25.027-5.484 6.257c-2.013 2.314-3.334 5.147-3.813 8.175z" fill="#ecc696"/><path d="m493.274 133.587s-18.317-1.78-18.553 31.27c-.237 33.049 10.23 48.746 18.345 100.718 0 0 31.052-3.809 53.851-20.591 0 0 1.42-121.714-53.643-111.397z" fill="#4479fa"/><path d="m489.6 177.857-43.315 41.419c-1.545 1.382-3.354 2.436-5.318 3.099-1.964.662-4.043.92-6.11.756-2.066-.164-4.078-.745-5.913-1.709-1.836-.964-3.456-2.29-4.762-3.898-2.42-2.995-3.621-6.79-3.363-10.63s1.956-7.442 4.755-10.086l46.126-45.049z" fill="#ecc696"/><path d="m477.769 204.121s-15.116-.529-30.621-31.298l30.426-32.187c2.011-2.123 4.443-3.806 7.14-4.939 2.698-1.134 5.602-1.695 8.528-1.646 2.926.048 5.81.704 8.468 1.927 2.658 1.222 5.033 2.984 6.973 5.173 3.288 3.723 5.153 8.487 5.265 13.451s-1.536 9.807-4.653 13.675z" fill="#4479fa"/><path d="m481.945 199.366 20.822-23.664" stroke="#000" stroke-linecap="round" stroke-linejoin="round" stroke-width=".51"/><path d="m445.505 197.266-61.688-46.647-8.128 12.68 48.715 54.712c1.397 1.643 3.136 2.962 5.096 3.864 1.959.902 4.093 1.367 6.25 1.36 2.158-.007 4.289-.484 6.243-1.398 1.954-.915 3.685-2.244 5.071-3.896 2.494-2.967 3.728-6.791 3.436-10.655-.291-3.863-2.084-7.459-4.995-10.02z" fill="#ecc696"/><path d="m391.96 163.508c-2.324 7.814-9.868 7.494-24.705 3.337-7.865-2.197-10.704-7.758-8.352-15.572.554-1.857 1.468-3.587 2.691-5.091s2.731-2.753 4.437-3.675 3.577-1.499 5.507-1.698c1.929-.199 3.879-.017 5.738.536 7.781 2.322 17.009 14.349 14.684 22.163z" fill="#ecc696"/><path d="m379.962 142.444-18.86-10.942c-.598-.415-1.336-.579-2.054-.457s-1.36.521-1.787 1.11c-.359.497-.517 1.111-.442 1.72.075.608.377 1.166.845 1.561l14.629 12.361z" fill="#ecc696"/></g></svg>