<svg fill="none" height="715" viewBox="0 0 1440 715" width="1440" xmlns="http://www.w3.org/2000/svg" xmlns:xlink="http://www.w3.org/1999/xlink"><clipPath id="a"><path d="m0 0h1440v715h-1440z"/></clipPath><g clip-path="url(#a)"><path d="m1413.08 725.023c205.55 0 372.17-166.627 372.17-372.172s-166.62-372.1719-372.17-372.1719c-205.54 0-372.17 166.6269-372.17 372.1719s166.63 372.172 372.17 372.172z" fill="#e5f2fd"/><g stroke="#606eff" stroke-miterlimit="10" stroke-width=".25"><path d="m149.385 833.57c76.115-76.115 76.115-199.522 0-275.637-76.1145-76.115-199.5211-76.114-275.636 0-76.115 76.115-76.115 199.522 0 275.637 76.1148 76.115 199.5216 76.115 275.636 0z" opacity=".3"/><path d="m132.729 816.913c66.915-66.916 66.915-175.407-.001-242.322-66.9149-66.916-175.4061-66.916-242.321 0-66.916 66.915-66.916 175.406 0 242.322 66.9149 66.915 175.4062 66.915 242.322 0z" opacity=".3"/><path d="m116.071 800.255c57.716-57.715 57.716-151.291 0-209.007-57.7158-57.716-151.2915-57.716-209.0073 0-57.7157 57.716-57.7157 151.292 0 209.007 57.7157 57.716 151.2915 57.716 209.0073 0z" opacity=".3"/><path d="m11.571 820.003c68.622 0 124.251-55.629 124.251-124.251s-55.629-124.251-124.251-124.251-124.251 55.629-124.251 124.251 55.629 124.251 124.251 124.251z" opacity=".3"/><path d="m11.5709 796.446c55.6117 0 100.6941-45.082 100.6941-100.694s-45.0824-100.694-100.6941-100.694-100.6939 45.082-100.6939 100.694 45.0822 100.694 100.6939 100.694z" opacity=".3"/><path d="m1605.49 808.123c80.61-80.605 80.61-211.293 0-291.898-80.6-80.606-211.29-80.605-291.9 0-80.6 80.606-80.6 211.293 0 291.898 80.61 80.606 211.3 80.606 291.9 0z" opacity=".3"/><path d="m1587.85 790.477c70.86-70.86 70.86-185.746 0-256.606s-185.75-70.86-256.61 0-70.86 185.746 0 256.606 185.75 70.86 256.61 0z" opacity=".3"/><path d="m1570.21 772.843c61.12-61.121 61.12-160.217 0-221.338-61.12-61.12-160.22-61.12-221.34 0-61.12 61.121-61.12 160.217 0 221.338 61.12 61.12 160.22 61.12 221.34 0z" opacity=".3"/><path d="m1459.55 793.748c72.67 0 131.57-58.906 131.57-131.571s-58.9-131.572-131.57-131.572c-72.66 0-131.57 58.907-131.57 131.572s58.91 131.571 131.57 131.571z" opacity=".3"/><path d="m1459.55 768.809c58.89 0 106.63-47.741 106.63-106.632 0-58.892-47.74-106.633-106.63-106.633s-106.63 47.741-106.63 106.633c0 58.891 47.74 106.632 106.63 106.632z" opacity=".3"/><path d="m493.252 63.0617c55.255-55.25526 55.255-144.8418 0-200.0967-55.255-55.256-144.842-55.256-200.097 0-55.255 55.2549-55.255 144.84143 0 200.0967 55.255 55.2553 144.842 55.2553 200.097 0z" opacity=".4"/><path d="m420.874 84.2999c66.979-15.2865 108.885-81.97627 93.598-148.9556-15.286-66.9793-81.976-108.8843-148.955-93.5983-66.98 15.287-108.885 81.9766-93.598 148.95595 15.286 66.97935 81.976 108.88455 148.955 93.59795z" opacity=".4"/><path d="m417.19 67.5863c57.756-13.2435 93.841-70.79978 80.597-128.5556-13.243-57.7557-70.8-93.8397-128.556-80.5967-57.755 13.243-93.84 70.7998-80.596 128.5556 13.243 57.7558 70.8 93.8402 128.555 80.5967z" opacity=".4"/><path d="m413.476 50.8999c48.545-11.1835 78.832-59.60299 67.649-108.1479-11.184-48.545-59.603-78.832-108.148-67.649-48.545 11.184-78.832 59.6031-67.649 108.1481 11.184 48.5449 59.603 78.8323 108.148 67.6488z" opacity=".4"/><path d="m409.728 34.2243c39.338-9.1047 63.846-48.3751 54.742-87.713-9.105-39.3379-48.375-63.8463-87.713-54.7423-39.338 9.105-63.847 48.3754-54.742 87.7133 9.104 39.3378 48.375 63.8467 87.713 54.742z" opacity=".4"/></g></g></svg>