<svg fill="none" height="50" viewBox="0 0 60 50" width="60" xmlns="http://www.w3.org/2000/svg"><path d="m0 0h60v50h-60z" fill="#eaecff"/><path d="m18.2 38.315c-1.89 0-3.71-.245-5.46-.735-1.7267-.5133-3.16167-1.225-4.305-2.135l1.75-3.92c2.4033 1.68 5.0867 2.52 8.05 2.52 1.5867 0 2.8-.245 3.64-.735.8633-.5133 1.295-1.225 1.295-2.135 0-.7933-.3967-1.4117-1.19-1.855-.77-.4667-2.135-.91-4.095-1.33-2.1933-.4433-3.9433-.98-5.25-1.61-1.2833-.6533-2.2283-1.435-2.835-2.345-.58333-.9333-.875-2.0883-.875-3.465 0-1.4933.40833-2.835 1.225-4.025.84-1.19 2.0067-2.1117 3.5-2.765 1.4933-.6767 3.22-1.015 5.18-1.015 1.7733 0 3.4767.2567 5.11.77s2.94 1.2133 3.92 2.1l-1.75 3.92c-2.1933-1.68-4.6083-2.52-7.245-2.52-1.4 0-2.52.28-3.36.84s-1.26 1.3183-1.26 2.275c0 .56.1517 1.0267.455 1.4.3267.3733.8633.7117 1.61 1.015.7467.28 1.8083.56 3.185.84 3.1967.7 5.495 1.61 6.895 2.73 1.4233 1.12 2.135 2.6483 2.135 4.585 0 2.3333-.91 4.1883-2.73 5.565-1.82 1.3533-4.3517 2.03-7.595 2.03z" fill="#606eff"/><path d="m49.9179 12.24v25.76h-5.215v-2.625c-.5366.91-1.295 1.6217-2.275 2.135s-2.0883.77-3.325.77c-1.5166 0-2.87-.385-4.06-1.155-1.19-.7933-2.1233-1.89-2.8-3.29-.6533-1.4233-.98-3.045-.98-4.865s.3267-3.4183.98-4.795c.6767-1.4 1.5984-2.4733 2.765-3.22 1.19-.77 2.555-1.155 4.095-1.155 1.19 0 2.275.2567 3.255.77.98.49 1.7384 1.1783 2.275 2.065v-10.395zm-9.275 22.015c1.3067 0 2.31-.4433 3.01-1.33.7-.91 1.05-2.205 1.05-3.885 0-1.6567-.3616-2.9283-1.085-3.815-.7-.91-1.6916-1.365-2.975-1.365-1.3066 0-2.3216.4433-3.045 1.33-.7233.8867-1.085 2.1467-1.085 3.78 0 1.68.3617 2.9867 1.085 3.92.7234.91 1.7384 1.365 3.045 1.365z" fill="#fb7370"/></svg>