<svg fill="none" height="547" viewBox="0 0 930 547" width="930" xmlns="http://www.w3.org/2000/svg"><path d="m812.984 232.489h-115.742c1.555 0 3.097-.072 4.611-.216-22.421-2.061-39.901-18.979-39.901-39.543s17.48-37.482 39.901-39.543c-1.514-.144-3.056-.216-4.611-.216 24.582 0 44.498-17.797 44.498-39.744 0-21.9477-19.93-39.7448-44.498-39.7448h-570.891c-24.582 0-44.4982 17.7971-44.4982 39.7448 0 21.947 19.9302 39.744 44.4982 39.744h-11.355c24.582 0 44.498 17.797 44.498 39.745 0 21.947-19.93 39.744-44.498 39.744h-47.9805c-37.0106.029-67.0155 26.833-67.0155 59.891s30.0049 59.847 67.0155 59.847h47.9945c24.582 0 44.498 17.797 44.498 39.744 0 21.948-19.93 39.745-44.498 39.745h11.355c-24.582 0-44.4985 17.797-44.4985 39.744 0 21.948 19.9295 39.745 44.4985 39.745h570.891c24.582 0 44.498-17.797 44.498-39.745 0-21.947-19.93-39.744-44.498-39.744 1.555 0 3.096-.072 4.611-.216-22.422-2.061-39.901-18.979-39.901-39.543s17.479-37.482 39.901-39.543c-1.515-.144-3.042-.216-4.598-.216h115.715c37.011 0 67.016-26.804 67.016-59.847 0-33.029-30.005-59.833-67.016-59.833z" fill="#e5f2fd"/><path d="m140.032 408.612c5.877 6.509 8.189 13.996 5.175 16.74-3.028 2.745-10.24-.303-16.117-6.811-5.877-6.509-8.19-13.996-5.175-16.74 3.014-2.744 10.24.317 16.117 6.811z" fill="#63b3ce"/><path d="m122.951 362.295c3.001 3.006 3.813 7.06 1.803 9.059-1.995 2-6.042 1.186-9.042-1.806-3.001-3.006-3.813-7.06-1.803-9.059 1.995-2 6.042-1.186 9.042 1.806z" fill="#63b3ce"/><path d="m183.663 323.892c3.138 8.701 2.092 17.044-2.34 18.643-4.432 1.6-10.557-4.15-13.695-12.837-3.138-8.701-2.092-17.044 2.34-18.643 4.432-1.614 10.557 4.136 13.695 12.837z" fill="#606eff"/><path d="m200.909 365.646c1.968 5.446 1.28 10.686-1.528 11.707-2.808 1.02-6.675-2.579-8.644-8.026-1.968-5.446-1.28-10.686 1.528-11.707 2.808-1.02 6.676 2.579 8.644 8.026z" fill="#606eff"/><path d="m225.801 357.086c3.618-1.31 4.045-9.316.955-17.882-3.09-8.567-8.528-14.449-12.145-13.139-3.618 1.309-4.045 9.315-.955 17.882 3.09 8.566 8.528 14.448 12.145 13.139z" fill="#606eff"/><path d="m212.278 405.455c1.169 2.785.784 5.598-.881 6.315-1.666.704-3.964-.979-5.134-3.75-1.17-2.786-.785-5.599.881-6.316 1.651-.703 3.95.979 5.134 3.751z" fill="#606eff"/><path d="m107.699 526.454s-5.822-7.777 3.881-17.498c0 0-5.615-32.928 27.899-37.355 0 0 6.318-22.173 25.298-24.71 18.966-2.537 34.148 9.501 38.566 25.979 0 0 14.548-5.075 27.816 3.806 13.282 8.866 12.016 27.233 12.016 27.233s14.548 5.199 8.85 22.545z" fill="#98a3f4"/><path d="m171.149 490.217s-10.68-.001-12.869-18.643c-1.129-9.639 3.001-18.478 7.24-24.752-.248.028-.496.028-.743.069-18.967 2.537-25.298 24.71-25.298 24.71-33.515 4.44-27.899 37.355-27.899 37.355-9.704 9.721-3.882 17.498-3.882 17.498h61.056c-17.218-18.105 2.395-36.237 2.395-36.237z" fill="#808fd8"/><path d="m682.308 463.81h-434.616c-12.484 0-22.6-10.135-22.6-22.641v-277.575c0-12.507 10.116-22.642 22.6-22.642h434.63c12.484 0 22.6 10.135 22.6 22.642v277.575c0 12.506-10.13 22.641-22.614 22.641z" fill="#2b284f"/><path d="m672.109 456.943h-414.218c-12.484 0-22.6-10.135-22.6-22.641v-263.855c0-12.507 10.116-22.642 22.6-22.642h414.218c12.484 0 22.6 10.135 22.6 22.642v263.855c.014 12.506-10.116 22.641-22.6 22.641z" fill="#fff"/><path d="m680.354 168.613h-436.86v14.355h436.86z" fill="#d2d9ff"/><path d="m591.344 381.807h-258.84v6.149h258.84z" fill="#d2d9ff"/><path d="m591.344 397.692h-258.84v6.15h258.84z" fill="#d2d9ff"/><path d="m591.344 413.59h-258.84v6.15h258.84z" fill="#d2d9ff"/><path d="m504.55 463.81h-85.252v35.88h85.252z" fill="#606eff" opacity=".21"/><path d="m516.924 511.176h-109.986v-1.42c0-5.571 4.501-10.08 10.061-10.08h89.864c5.56 0 10.061 4.509 10.061 10.08z" fill="#606eff"/><path d="m13.7084 127.991s15.2502-36.0176 26.1786-36.0039c10.9284 0 15.787 9.9009 21.3613 8.1909 5.5743-1.6962 16.778-49.6133 33.7624-47.8483 16.9703 1.7512 14.4523 41.9878 31.3403 45.1041 16.888 3.1162 26.811-24.3239 45.654-19.7184 18.842 4.6056 22.834 39.0926 27.761 47.6276 4.928 8.522 12.759 14.492 2.505 14.534-10.254.041-211.83699-.345-188.5626-11.886z" fill="#7da2ff"/><path d="m636.544 306.959v48.8c0 1.186.95 2.137 2.133 2.137 1.184 0 2.134-.951 2.134-2.137v-23.662c0-2.165 1.761-3.93 3.922-3.93s3.923 1.765 3.923 3.93v32.556c0 2.647 2.133 4.785 4.776 4.785s4.776-2.138 4.776-4.785v-30.598c0-2.496 2.023-4.523 4.514-4.523 2.492 0 4.515 2.027 4.515 4.523 0 2.289 1.844 4.137 4.129 4.137h1.583c3.152 0 5.712-2.565 5.712-5.723v-25.523h-42.117z" fill="#f2c73c"/><path d="m678.275 306.959h-40.148c-1.349 0-2.437-1.089-2.437-2.44v-4.84c0-1.352 1.088-2.441 2.437-2.441h40.148c1.349 0 2.437 1.089 2.437 2.441v4.84c0 1.351-1.102 2.44-2.437 2.44z" fill="#ffda73"/><path d="m756.412 333.972s-2.904 11.28-4.267 17.94c-1.362 6.66 10.406 9.39 10.406 9.39l-1.019 5.805s6.483-.345 8.52 2.91l3.235-13.155s3.413-3.585 2.725-8.025-5.286-3.93-6.827 0c0 0-5.134-5.461-5.12-12.81.014 0-3.386 1.875-7.653-2.055z" fill="#e5827c"/><path d="m782.508 335.861s1.542-4.44-1.527-7.68c-3.07-3.241-9.043-3.42-13.64-2.731-.84.125-4.267-.165-8.864-1.709-4.597-1.545-9.552 0-10.571 4.784-1.018 4.785 7.089 11.211 7.089 11.211.812-3.282 1.445-5.75 1.445-5.75 4.267 3.93 7.666 2.054 7.666 2.054-.014 7.35 5.12 12.811 5.12 12.811 1.528-3.93 6.139-4.441 6.827 0 .688 4.44-2.725 8.025-2.725 8.025s8.52-4.44 10.57-10.59c2.01-6.164-1.39-10.425-1.39-10.425z" fill="#bc4d88"/><path d="m761.532 367.121s-9.552-.855-16.874-2.385c-7.336-1.531-42.971-16.23-42.971-16.23s-3.069 3.24-3.069 7.17c0 0 22.848 15.541 31.464 18.96 8.616 3.42 18.498 9.57 18.498 9.57s-.688 26.475 0 35.879c.689 9.39.689 12.645.689 12.645s16.365 1.53 29.151-2.565c0 0-1.349-32.294-2.298-41.174-.95-8.881-6.056-18.96-6.056-18.96s-3.083-4.11-8.534-2.91z" fill="#f2c73c"/><path d="m748.319 397.871c.083-7.46.248-13.665.248-13.665s-1.225-.759-3.152-1.876c-.014.014-12.016 10.425-12.869 10.591-.853.165-11.933-10.591-11.933-10.591-2.381.855-5.795 3.765-5.795 3.765s12.443 18.96 16.2 19.815c3.744.841 17.301-8.039 17.301-8.039z" fill="#d3a629"/><path d="m717.585 372.844s1.954 7.308 3.028 9.486c0 0-3.703 1.628-5.795 3.765 0 0-3.881-2.179-6.303-6.619-2.423-4.44-3.194-5.722 1.913-8.411 5.106-2.703 6.097-1.972 7.157 1.779z" fill="#e5827c"/><path d="m748.567 384.206 4.955 2.854-4.955 3.075z" fill="#d3a629"/><path d="m730.756 520.442 3.455 12.81s2.684 3.585 8.313.897l-2.56-13.707z" fill="#e5827c"/><path d="m719.883 542.863s.771-2.054 5.12-2.951c4.35-.896 9.208-6.66 9.208-6.66s2.808 3.71 8.313.897c0 0 1.914 5.129 1.528 8.714 0 0-23.274 3.075-24.169 0z" fill="#4958ed"/><path d="m778.765 519.146 3.454 12.81s2.684 3.585 8.314.896l-2.23-15.499z" fill="#e5827c"/><path d="m767.905 541.567s.771-2.055 5.12-2.951 9.208-6.66 9.208-6.66 2.808 3.709 8.313.896c0 0 1.913 5.13 1.528 8.715 0 0-23.275 3.075-24.169 0z" fill="#4958ed"/><path d="m778.916 520.442s5.547-1.02 9.387-3.075c0 0-6.758-39.464-9.387-50.22-2.629-10.769-5.698-26.392-5.698-26.392l-19.187 23.055s20.866 41.767 24.885 56.632z" fill="#211d35"/><path d="m778.407 430.151c-12.787 4.095-29.152 2.565-29.152 2.565s-23.357 44.925-24.898 51.847c-1.528 6.922 6.4 35.879 6.4 35.879s4.858 3.075 8.946 1.021c0 0-.771-28.958.262-34.597 1.018-5.64 21.746-26.655 31.711-37.162 9.979-10.493 6.731-19.553 6.731-19.553z" fill="#2b284f"/><path d="m657.974 306.959 53.94 70.09 3.317-2.758-50.581-67.332z" fill="#f4f3fe"/><path d="m701.674 348.492s-5.327-3.709-7.763-5.13c-2.436-1.406-5.506-4.743-5.506-4.743s-.385 2.565-1.527 3.075c-1.157.51-4.735 1.668-5.121 2.689-.385 1.02.634 3.075 1.019 4.095.385 1.021-.509 2.524.262 3.503.77.979.385 2.771 1.665 2.909 1.28.124 8.575-.124 10.364 0s3.537.772 3.537.772-.165-3.447 3.07-7.17z" fill="#e5827c"/><path d="m714.804 382.841s-3.138-3.889 0-6.274c0 0-5.285.262-4.005-1.545 1.28-1.792 4.047-3.419 6.249-3.764l2.808 9.142z" fill="#e5827c"/><path d="m605.796 241.865-277.918-58.914-33.32 157.764 277.918 58.914z" fill="#606eff"/><path d="m401.368 210.051-62.06-13.156-28.836 136.531 62.06 13.156z" fill="#fefeff"/><path d="m588.702 254.545-171.841-36.427-3.282 15.54 171.841 36.428z" fill="#fefeff"/><path d="m582.866 282.192-171.841-36.428-3.282 15.541 171.84 36.427z" fill="#fefeff"/><path d="m576.895 310.458-171.841-36.427-3.282 15.54 171.84 36.427z" fill="#fefeff"/><path d="m570.521 340.641-171.841-36.427-3.282 15.54 171.841 36.427z" fill="#fefeff"/><path d="m336.674 76.2262s-8.396-.6757-10.997-1.4065c0 0-1.019 4.4125-2.946 7.1428 0 0 3.18 3.8195 8.534 5.5983 5.354 1.765 6.923 2.358 8.822-3.8195 1.927-6.1776.909-7.1152-3.413-7.5151z" fill="#e5827c"/><path d="m338.945 13.734s-2.285-10.59006-12.277-13.154838c-9.993-2.578562-27.418 3.433488-27.418 19.166838 0 15.7334 2.85 36.8997 2.85 36.8997s15.993 3.1439 25.985 0c9.993-3.144 9.993-3.144 9.993-3.144s-4.57-10.59-3.427-17.7327c1.156-7.1566 8.437-14.0098 4.294-22.035z" fill="#bc4d88"/><path d="m335.229 17.457s-14.273 5.1434-21.706 0c0 0 1.707-4.2884-1.996-6.012-3.716-1.70985-9.139 4.8675-7.996 11.7345l-8.85 5.8466s6.001 1.31 7.996 7.8874l6.566-3.4335s1.142 6.012 7.143 5.7225c6.001-.2896 14.851-11.445 18.843-21.7455z" fill="#e5827c"/><path d="m252.426 54.922s29.413-27.2059 42.255-25.9097c0 0 6.854 1.0204 7.997 7.8874l2.573 27.7436 14.48 19.4703s-1.06 5.1433-4.776 6.012c0 0-19.132-15.7334-20.274-19.4564-1.142-3.7231-1.996-12.6171-1.996-12.6171s-6.854 2.3166-9.703 7.1842c-2.849 4.8675-3.427 11.7345-3.427 11.7345s-29.413-4.8813-27.129-22.0488z" fill="#3500b7"/><path d="m279.555 76.957s15.14 13.734 20.838 18.8773c5.712 5.1437 6.854 37.7547 6.854 37.7547s-2.284 2.578-7.996 1.434c0 0-5.134-14.299-5.85-26.323l-24.417-14.024-1.294-21.1938z" fill="#808fd8"/><path d="m267.69 73.4959c-7.873-3.1991-16.544-8.9491-15.264-18.5739 0 0-9.703 8.0115-8.285 21.7454 1.431 13.734 15.14 28.0336 15.14 28.0336-5.712 9.721-10.846 34.335-10.846 34.335.289 4.867 6.565 3.433 6.565 3.433s20.563-32.046 19.421-37.755c-1.143-5.7358-6.731-31.2181-6.731-31.2181z" fill="#4958ed"/><path d="m292.685 58.0384v-11.6932l-5.216 14.3683s2.367-1.5582 5.216-2.6751z" fill="#1a0087"/><path d="m305.251 64.6571 12.512 16.8089 4.335 1.2135c3.62-4.578 3.716-9.1698 3.716-9.1698z" fill="#1a0087"/><path d="m248.435 139.036s-2.849 3.723-2.092 10.397c0 0 14.273 2.096 20.37.951 0 0-5.134-4.481-11.713-7.915 0 0-5.423 1.806-6.565-3.433z" fill="#98a3f4"/><path d="m299.25 135.023v7.639s11.617 2.013 21.32 0c0 0-3.427-3.53-7.996-5.06-4.57-1.531-5.327-3.999-5.327-3.999s-2.849 2.289-7.997 1.42z" fill="#98a3f4"/><path d="m314.969 90.1118s2.945 3.9989 5.615 4.1919c2.67.1931 2.285 1.9029 4.377 2.096 2.092.193 3.427.193 5.134-2.289 1.707-2.4821.564.193 1.707-2.4821 1.142-2.6751-12.071-7.5288-12.071-7.5288s-1.06 3.723-4.762 6.012z" fill="#e5827c"/><path d="m332.021 190.317v-113.5116" stroke="#98a3f4" stroke-miterlimit="10"/><path d="m326.296 81.3006s4.9 2.6613 6.882-1.2824c0 0 .798 5.8604 2.505 4.0954 1.706-1.765 2.918-5.1433 2.849-7.6392l-10.598-1.2272z" fill="#e5827c"/><path d="m645.119 501.661h-32.496v45.339h32.496z" fill="#a3a3a3"/><path d="m612.623 547h32.496l-32.496-45.339z" fill="#d3d3d3"/><path d="m612.857 499.69h31.67c1.156 0 2.106.937 2.106 2.109v14.051s-.234 4.413-3.482 2.565c-3.249-1.861-1.735-7.68-3.717-9.128-2.422-1.779-7.102 4.399-5.078 9.831 1.266 3.393-.757 6.205-4.322 5.626-5.354-.868-2.932-11.927-5.341-14.589-2.202-2.44-6.62-1.861-7.432 5.351-.812 7.211-4.872 8.604-6.386 7.211-1.225-1.13-.454-15.678-.124-21.056.082-1.117.991-1.971 2.106-1.971z" fill="#f2c73c"/><g fill="#341f78"><path d="m237.025 536.893c-.083 0-.165 0-.248-.014-1.294-.138-2.23-1.296-2.106-2.592l31.381-306.808c.138-1.296 1.294-2.248 2.588-2.11s2.23 1.297 2.106 2.593l-31.381 306.821c-.124 1.2-1.157 2.11-2.34 2.11z"/><path d="m332.504 536.893c-1.198 0-2.216-.911-2.34-2.124l-31.381-306.821c-.138-1.297.812-2.455 2.106-2.593 1.293-.124 2.45.814 2.587 2.11l31.381 306.808c.138 1.296-.812 2.454-2.105 2.592-.083.028-.166.028-.248.028z"/><path d="m304.412 263.482h-39.323c-1.308 0-2.354-1.062-2.354-2.358s1.06-2.358 2.354-2.358h39.323c1.307 0 2.354 1.062 2.354 2.358s-1.047 2.358-2.354 2.358z"/><path d="m308.665 303.677h-47.788c-1.308 0-2.354-1.061-2.354-2.358 0-1.309 1.06-2.357 2.354-2.357h47.788c1.307 0 2.353 1.061 2.353 2.357 0 1.297-1.06 2.358-2.353 2.358z"/><path d="m313.978 354.187h-58.276c-1.307 0-2.353-1.062-2.353-2.358s1.059-2.358 2.353-2.358h58.276c1.307 0 2.353 1.062 2.353 2.358.014 1.296-1.046 2.358-2.353 2.358z"/><path d="m319.511 411.081h-69.631c-1.308 0-2.354-1.062-2.354-2.358s1.06-2.358 2.354-2.358h69.631c1.307 0 2.353 1.062 2.353 2.358s-1.046 2.358-2.353 2.358z"/><path d="m327.783 491.788h-86.147c-1.308 0-2.354-1.061-2.354-2.358 0-1.296 1.06-2.357 2.354-2.357h86.147c1.307 0 2.353 1.061 2.353 2.357 0 1.297-1.046 2.358-2.353 2.358z"/></g><path d="m97.7873 211.611c9.5247-3.723 14.2337-14.477 10.5167-24.02-3.716-9.542-14.4504-14.259-23.975-10.536-9.5247 3.724-14.2332 14.477-10.5168 24.02 3.7164 9.542 14.4505 14.259 23.9751 10.536z" fill="#d2d9ff"/><path d="m758.744 195.861c2.078-8.773-3.336-17.573-12.094-19.655-8.757-2.082-17.541 3.343-19.619 12.116s3.337 17.573 12.094 19.655 17.541-3.342 19.619-12.116z" fill="#e5f2fd"/><path d="m894.063 408.723c5.724 0 10.364-4.649 10.364-10.383 0-5.735-4.64-10.383-10.364-10.383s-10.364 4.648-10.364 10.383c0 5.734 4.64 10.383 10.364 10.383z" fill="#e5f2fd"/><path d="m31.2021 426.18c8.8102 0 15.9522-7.155 15.9522-15.982 0-8.826-7.142-15.981-15.9522-15.981-8.8101 0-15.9521 7.155-15.9521 15.981 0 8.827 7.142 15.982 15.9521 15.982z" fill="#d2d9ff"/></svg>