<svg fill="none" height="44" viewBox="0 0 171 44" width="171" xmlns="http://www.w3.org/2000/svg"><path d="m11.2 35.315c-1.89 0-3.71-.245-5.46-.735-1.72667-.5133-3.16167-1.225-4.305-2.135l1.75-3.92c2.40333 1.68 5.08667 2.52 8.05 2.52 1.5867 0 2.8-.245 3.64-.735.8633-.5133 1.295-1.225 1.295-2.135 0-.7933-.3967-1.4117-1.19-1.855-.77-.4667-2.135-.91-4.095-1.33-2.19333-.4433-3.94333-.98-5.25-1.61-1.28333-.6533-2.22833-1.435-2.835-2.345-.58333-.9333-.875-2.0883-.875-3.465 0-1.4933.40833-2.835 1.225-4.025.84-1.19 2.00667-2.1117 3.5-2.765 1.49333-.6767 3.22-1.015 5.18-1.015 1.7733 0 3.4767.2567 5.11.77s2.94 1.2133 3.92 2.1l-1.75 3.92c-2.1933-1.68-4.6083-2.52-7.245-2.52-1.4 0-2.52.28-3.36.84s-1.26 1.3183-1.26 2.275c0 .56.15167 1.0267.455 1.4.32667.3733.86333.7117 1.61 1.015.7467.28 1.8083.56 3.185.84 3.1967.7 5.495 1.61 6.895 2.73 1.4233 1.12 2.135 2.6483 2.135 4.585 0 2.3333-.91 4.1883-2.73 5.565-1.82 1.3533-4.3517 2.03-7.595 2.03zm31.7179-18.06v17.745h-5.215v-2.625c-.5366.91-1.295 1.6217-2.275 2.135s-2.0883.77-3.325.77c-1.54 0-2.905-.3733-4.095-1.12-1.1666-.7467-2.0883-1.8083-2.765-3.185-.6533-1.4-.98-3.01-.98-4.83s.3267-3.4417.98-4.865c.6767-1.4233 1.61-2.52 2.8-3.29 1.19-.7933 2.5434-1.19 4.06-1.19 1.2367 0 2.345.2683 3.325.805s1.7384 1.26 2.275 2.17v-2.52zm-9.275 14c1.3067 0 2.31-.4433 3.01-1.33s1.05-2.17 1.05-3.85-.35-2.9633-1.05-3.85c-.7-.91-1.7033-1.365-3.01-1.365-1.3066 0-2.3216.4667-3.045 1.4-.7233.9333-1.085 2.2283-1.085 3.885s.35 2.9283 1.05 3.815c.7234.8633 1.75 1.295 3.08 1.295zm31.3209-14v17.745h-5.215v-2.625c-.5366.91-1.295 1.6217-2.275 2.135s-2.0883.77-3.325.77c-1.54 0-2.905-.3733-4.095-1.12-1.1666-.7467-2.0883-1.8083-2.765-3.185-.6533-1.4-.98-3.01-.98-4.83s.3267-3.4417.98-4.865c.6767-1.4233 1.61-2.52 2.8-3.29 1.19-.7933 2.5434-1.19 4.06-1.19 1.2367 0 2.345.2683 3.325.805s1.7384 1.26 2.275 2.17v-2.52zm-9.275 14c1.3067 0 2.31-.4433 3.01-1.33s1.05-2.17 1.05-3.85-.35-2.9633-1.05-3.85c-.7-.91-1.7033-1.365-3.01-1.365-1.3066 0-2.3216.4667-3.045 1.4-.7233.9333-1.085 2.2283-1.085 3.885s.35 2.9283 1.05 3.815c.7234.8633 1.75 1.295 3.08 1.295zm22.6059 4.06c-1.89 0-3.71-.245-5.46-.735-1.7266-.5133-3.1616-1.225-4.305-2.135l1.75-3.92c2.4034 1.68 5.0867 2.52 8.05 2.52 1.5867 0 2.8-.245 3.64-.735.8634-.5133 1.295-1.225 1.295-2.135 0-.7933-.3966-1.4117-1.19-1.855-.77-.4667-2.135-.91-4.095-1.33-2.1933-.4433-3.9433-.98-5.25-1.61-1.2833-.6533-2.2283-1.435-2.835-2.345-.5833-.9333-.875-2.0883-.875-3.465 0-1.4933.4084-2.835 1.225-4.025.84-1.19 2.0067-2.1117 3.5-2.765 1.4934-.6767 3.22-1.015 5.18-1.015 1.7734 0 3.4767.2567 5.11.77 1.6334.5133 2.94 1.2133 3.92 2.1l-1.75 3.92c-2.1933-1.68-4.6083-2.52-7.245-2.52-1.4 0-2.52.28-3.36.84s-1.26 1.3183-1.26 2.275c0 .56.1517 1.0267.455 1.4.3267.3733.8634.7117 1.61 1.015.7467.28 1.8084.56 3.185.84 3.1967.7 5.495 1.61 6.895 2.73 1.4234 1.12 2.135 2.6483 2.135 4.585 0 2.3333-.91 4.1883-2.73 5.565-1.82 1.3533-4.3516 2.03-7.595 2.03z" fill="#606eff"/><path d="m110.013 9.24v25.76h-5.215v-2.625c-.537.91-1.295 1.6217-2.275 2.135s-2.089.77-3.3253.77c-1.5167 0-2.87-.385-4.06-1.155-1.19-.7933-2.1234-1.89-2.8-3.29-.6534-1.4233-.98-3.045-.98-4.865s.3266-3.4183.98-4.795c.6766-1.4 1.5983-2.4733 2.765-3.22 1.19-.77 2.555-1.155 4.095-1.155 1.1903 0 2.2753.2567 3.2553.77.98.49 1.738 1.1783 2.275 2.065v-10.395zm-9.275 22.015c1.306 0 2.31-.4433 3.01-1.33.7-.91 1.05-2.205 1.05-3.885 0-1.6567-.362-2.9283-1.085-3.815-.7-.91-1.692-1.365-2.975-1.365-1.307 0-2.322.4433-3.0453 1.33-.7234.8867-1.085 2.1467-1.085 3.78 0 1.68.3616 2.9867 1.085 3.92.7233.91 1.7383 1.365 3.0453 1.365zm29.466-4.69h-11.69c.093 1.6567.525 2.87 1.295 3.64.77.7467 1.913 1.12 3.43 1.12.91 0 1.82-.1517 2.73-.455s1.75-.7467 2.52-1.33l1.4 3.57c-.84.6767-1.89 1.2133-3.15 1.61-1.237.3733-2.485.56-3.745.56-2.987 0-5.332-.8167-7.035-2.45-1.704-1.6567-2.555-3.9083-2.555-6.755 0-1.7967.361-3.395 1.085-4.795.746-1.4233 1.785-2.52 3.115-3.29 1.33-.7933 2.835-1.19 4.515-1.19 2.496 0 4.468.8167 5.915 2.45 1.446 1.61 2.17 3.7917 2.17 6.545zm-7.945-6.055c-1.004 0-1.82.2917-2.45.875-.607.5833-1.004 1.435-1.19 2.555h7.035c-.28-2.2867-1.412-3.43-3.395-3.43zm19.663 14.77c-2.894 0-5.169-.8167-6.825-2.45-1.634-1.6333-2.45-3.8617-2.45-6.685 0-1.8433.396-3.465 1.19-4.865.793-1.4233 1.901-2.52 3.325-3.29 1.446-.7933 3.115-1.19 5.005-1.19 1.283 0 2.531.1983 3.745.595 1.213.3967 2.181.9333 2.905 1.61l-1.4 3.675c-.7-.56-1.47-.9917-2.31-1.295-.84-.3267-1.657-.49-2.45-.49-1.447 0-2.579.4433-3.395 1.33-.794.8633-1.19 2.135-1.19 3.815 0 1.7033.396 2.9983 1.19 3.885.793.8633 1.925 1.295 3.395 1.295.793 0 1.61-.1517 2.45-.455.84-.3267 1.61-.77 2.31-1.33l1.4 3.675c-.77.6767-1.774 1.2133-3.01 1.61-1.237.3733-2.532.56-3.885.56zm21.657-.28-6.965-7.945v7.945h-5.285v-25.76h5.285v15.645l6.65-7.595h6.335l-7.525 8.505 7.98 9.205z" fill="#fb7370"/><path d="m30 9h34v4h-34z" fill="#fb7370"/><path d="m117 10h32v4h-32z" fill="#606eff"/></svg>